<?xml version="1.0" encoding="UTF-8" standalone="no"?>
<!-- Created with Serif DrawPlus 11, 0, 0, 18 (Mar 20, 15:09:53) (http://www.serif.com) -->
<svg version="1.1" xmlns="http://www.w3.org/2000/svg" xmlns:xlink="http://www.w3.org/1999/xlink" xmlns:i="http://ns.adobe.com/AdobeIllustrator/10.0/"  width="850" height="450" enable-background="new 0 0 280.5 260.5">
<g id="iPASO200_Icons">
	<g id="iPASO200">
		<g transform="matrix(1,0,0,1,-25.932,-79.044)">
			<path id="dp_path001" fill="#547fa8" fill-rule="evenodd" stroke="#547fa8" stroke-width="1.33333" d="M 26.5987,79.7107 L 736.432,79.7107 L 736.432,188.641 L 26.5987,188.641 Z "/>
			<path id="dp_path002" fill="white" fill-rule="evenodd" stroke="#547fa8" stroke-width="1.33333" d="M 56.7093,108.825 L 680.315,108.825 L 680.315,176.856 L 56.7093,176.856 Z "/>
			<path id="dp_path003" fill="#547fa8" fill-rule="evenodd" stroke="#547fa8" stroke-width="1.33333" d="M 106.623,115.387 C 111.901,115.387 116.181,119.667 116.181,124.945 C 116.181,130.224 111.901,134.504 106.623,134.504 C 101.344,134.504 97.064,130.224 97.064,124.945 C 97.064,119.667 101.344,115.387 106.623,115.387 Z "/>
			<path id="dp_path004" fill="#547fa8" fill-rule="evenodd" stroke="#547fa8" stroke-width="1.33333" d="M 106.623,150.623 C 111.901,150.623 116.181,154.903 116.181,160.181 C 116.181,165.46 111.901,169.74 106.623,169.74 C 101.344,169.74 97.064,165.46 97.064,160.181 C 97.064,154.903 101.344,150.623 106.623,150.623 Z "/>
			<path id="dp_path005" fill="#547fa8" fill-rule="evenodd" stroke="#547fa8" stroke-width="1.33333" d="M 167.977,142.564 L 179.667,142.564 L 179.667,170.3 L 167.977,170.3 Z "/>
			<path id="dp_path006" fill="#547fa8" fill-rule="evenodd" stroke="#547fa8" stroke-width="1.33333" d="M 189.655,122.504 L 212.332,122.504 L 212.332,145.181 L 189.655,145.181 Z "/>
			<path id="dp_path007" fill="#547fa8" fill-rule="evenodd" stroke="#547fa8" stroke-width="1.33333" d="M 189.655,148.504 L 212.332,148.504 L 212.332,171.181 L 189.655,171.181 Z "/>
			<path id="dp_path008" fill="#547fa8" fill-rule="evenodd" stroke="#547fa8" stroke-width="1.33333" d="M 215.655,122.504 L 238.332,122.504 L 238.332,145.181 L 215.655,145.181 Z "/>
			<path id="dp_path009" fill="#547fa8" fill-rule="evenodd" stroke="#547fa8" stroke-width="1.33333" d="M 215.655,148.504 L 238.332,148.504 L 238.332,171.181 L 215.655,171.181 Z "/>
			<path id="dp_path010" fill="#547fa8" fill-rule="evenodd" stroke="#547fa8" stroke-width="1.33333" d="M 245.655,122.504 L 268.332,122.504 L 268.332,145.181 L 245.655,145.181 Z "/>
			<path id="dp_path011" fill="#547fa8" fill-rule="evenodd" stroke="#547fa8" stroke-width="1.33333" d="M 245.655,148.504 L 268.332,148.504 L 268.332,171.181 L 245.655,171.181 Z "/>
			<path id="dp_path012" fill="#547fa8" fill-rule="evenodd" stroke="#547fa8" stroke-width="1.33333" d="M 271.655,122.504 L 294.332,122.504 L 294.332,145.181 L 271.655,145.181 Z "/>
			<path id="dp_path013" fill="#547fa8" fill-rule="evenodd" stroke="#547fa8" stroke-width="1.33333" d="M 271.655,148.504 L 294.332,148.504 L 294.332,171.181 L 271.655,171.181 Z "/>
			<path id="dp_path014" fill="#547fa8" fill-rule="evenodd" stroke="#547fa8" stroke-width="1.33333" d="M 301.157,153.181 L 327.275,153.181 L 327.275,171.633 L 301.157,171.633 Z "/>
			<path id="dp_path015" fill="#547fa8" fill-rule="evenodd" stroke="#547fa8" stroke-width="1.33333" d="M 455.457,157.407 L 547.928,157.407 L 547.928,171.633 L 455.457,171.633 Z "/>
			<path id="dp_path016" fill="#547fa8" fill-rule="evenodd" stroke="#547fa8" stroke-width="1.33333" d="M 434.932,171.852 L 378.436,171.852 L 375.308,157.171 L 438.661,157.171 Z "/>
			<path id="dp_path017" fill="#547fa8" fill-rule="evenodd" stroke="#547fa8" stroke-width="1.33333" d="M 604.284,153.181 C 609.563,153.181 613.843,157.461 613.843,162.74 C 613.843,168.019 609.563,172.299 604.284,172.299 C 599.005,172.299 594.725,168.019 594.725,162.74 C 594.725,157.461 599.005,153.181 604.284,153.181 Z "/>
			<path id="dp_path018" fill="#547fa8" fill-rule="evenodd" stroke="#547fa8" stroke-width="1.33333" d="M 331.157,153.181 L 357.275,153.181 L 357.275,171.633 L 331.157,171.633 Z "/>
			<path id="dp_path019" fill="#547fa8" fill-rule="evenodd" stroke="#547fa8" stroke-width="1.33333" d="M 624.461,152.515 L 667.755,152.515 L 667.755,170.967 L 624.461,170.967 Z "/>
			<path id="dp_path020" fill="white" fill-rule="evenodd" stroke="#547fa8" stroke-width="1.33333" d="M 688,108.828 L 729.228,108.828 L 729.228,176.857 L 688,176.857 Z "/>
		</g>
	</g>
	<g id="iPASO200_rollover">
		<g  transform="matrix(1,0,0,1,-25.932,-79.044)">
			<path id="dp_path001" fill="#10547d" fill-rule="evenodd" stroke="#547fa8" stroke-width="1.33333" d="M 26.5987,79.7107 L 736.432,79.7107 L 736.432,188.641 L 26.5987,188.641 Z "/>
			<path id="dp_path002" fill="white" fill-rule="evenodd" stroke="#10547d" stroke-width="1.33333" d="M 56.7093,108.825 L 680.315,108.825 L 680.315,176.856 L 56.7093,176.856 Z "/>
			<path id="dp_path003" fill="#10547d" fill-rule="evenodd" stroke="#10547d" stroke-width="1.33333" d="M 106.623,115.387 C 111.901,115.387 116.181,119.667 116.181,124.945 C 116.181,130.224 111.901,134.504 106.623,134.504 C 101.344,134.504 97.064,130.224 97.064,124.945 C 97.064,119.667 101.344,115.387 106.623,115.387 Z "/>
			<path id="dp_path004" fill="#10547d" fill-rule="evenodd" stroke="#10547d" stroke-width="1.33333" d="M 106.623,150.623 C 111.901,150.623 116.181,154.903 116.181,160.181 C 116.181,165.46 111.901,169.74 106.623,169.74 C 101.344,169.74 97.064,165.46 97.064,160.181 C 97.064,154.903 101.344,150.623 106.623,150.623 Z "/>
			<path id="dp_path005" fill="#10547d" fill-rule="evenodd" stroke="#10547d" stroke-width="1.33333" d="M 167.977,142.564 L 179.667,142.564 L 179.667,170.3 L 167.977,170.3 Z "/>
			<path id="dp_path006" fill="#10547d" fill-rule="evenodd" stroke="#10547d" stroke-width="1.33333" d="M 189.655,122.504 L 212.332,122.504 L 212.332,145.181 L 189.655,145.181 Z "/>
			<path id="dp_path007" fill="#10547d" fill-rule="evenodd" stroke="#10547d" stroke-width="1.33333" d="M 189.655,148.504 L 212.332,148.504 L 212.332,171.181 L 189.655,171.181 Z "/>
			<path id="dp_path008" fill="#10547d" fill-rule="evenodd" stroke="#10547d" stroke-width="1.33333" d="M 215.655,122.504 L 238.332,122.504 L 238.332,145.181 L 215.655,145.181 Z "/>
			<path id="dp_path009" fill="#10547d" fill-rule="evenodd" stroke="#10547d" stroke-width="1.33333" d="M 215.655,148.504 L 238.332,148.504 L 238.332,171.181 L 215.655,171.181 Z "/>
			<path id="dp_path010" fill="#10547d" fill-rule="evenodd" stroke="#10547d" stroke-width="1.33333" d="M 245.655,122.504 L 268.332,122.504 L 268.332,145.181 L 245.655,145.181 Z "/>
			<path id="dp_path011" fill="#10547d" fill-rule="evenodd" stroke="#10547d" stroke-width="1.33333" d="M 245.655,148.504 L 268.332,148.504 L 268.332,171.181 L 245.655,171.181 Z "/>
			<path id="dp_path012" fill="#10547d" fill-rule="evenodd" stroke="#10547d" stroke-width="1.33333" d="M 271.655,122.504 L 294.332,122.504 L 294.332,145.181 L 271.655,145.181 Z "/>
			<path id="dp_path013" fill="#10547d" fill-rule="evenodd" stroke="#10547d" stroke-width="1.33333" d="M 271.655,148.504 L 294.332,148.504 L 294.332,171.181 L 271.655,171.181 Z "/>
			<path id="dp_path014" fill="#10547d" fill-rule="evenodd" stroke="#10547d" stroke-width="1.33333" d="M 301.157,153.181 L 327.275,153.181 L 327.275,171.633 L 301.157,171.633 Z "/>
			<path id="dp_path015" fill="#10547d" fill-rule="evenodd" stroke="#10547d" stroke-width="1.33333" d="M 455.457,157.407 L 547.928,157.407 L 547.928,171.633 L 455.457,171.633 Z "/>
			<path id="dp_path016" fill="#10547d" fill-rule="evenodd" stroke="#10547d" stroke-width="1.33333" d="M 434.932,171.852 L 378.436,171.852 L 375.308,157.171 L 438.661,157.171 Z "/>
			<path id="dp_path017" fill="#10547d" fill-rule="evenodd" stroke="#10547d" stroke-width="1.33333" d="M 604.284,153.181 C 609.563,153.181 613.843,157.461 613.843,162.74 C 613.843,168.019 609.563,172.299 604.284,172.299 C 599.005,172.299 594.725,168.019 594.725,162.74 C 594.725,157.461 599.005,153.181 604.284,153.181 Z "/>
			<path id="dp_path018" fill="#10547d" fill-rule="evenodd" stroke="#10547d" stroke-width="1.33333" d="M 331.157,153.181 L 357.275,153.181 L 357.275,171.633 L 331.157,171.633 Z "/>
			<path id="dp_path019" fill="#10547d" fill-rule="evenodd" stroke="#10547d" stroke-width="1.33333" d="M 624.461,152.515 L 667.755,152.515 L 667.755,170.967 L 624.461,170.967 Z "/>
			<path id="dp_path020" fill="white" fill-rule="evenodd" stroke="#10547d" stroke-width="1.33333" d="M 688,108.828 L 729.228,108.828 L 729.228,176.857 L 688,176.857 Z "/>
		</g>
	</g>
	<g id="iPASO200_active">
		<g transform="matrix(1,0,0,1,-25.932,-79.044)">
			<path id="dp_path001" fill="#91c054" fill-rule="evenodd" stroke="#91c054" stroke-width="1.33333" d="M 26.5987,79.7107 L 736.432,79.7107 L 736.432,188.641 L 26.5987,188.641 Z "/>
			<path id="dp_path002" fill="white" fill-rule="evenodd" stroke="#91c054" stroke-width="1.33333" d="M 56.7093,108.825 L 680.315,108.825 L 680.315,176.856 L 56.7093,176.856 Z "/>
			<path id="dp_path003" fill="#91c054" fill-rule="evenodd" stroke="#91c054" stroke-width="1.33333" d="M 106.623,115.387 C 111.901,115.387 116.181,119.667 116.181,124.945 C 116.181,130.224 111.901,134.504 106.623,134.504 C 101.344,134.504 97.064,130.224 97.064,124.945 C 97.064,119.667 101.344,115.387 106.623,115.387 Z "/>
			<path id="dp_path004" fill="#91c054" fill-rule="evenodd" stroke="#91c054" stroke-width="1.33333" d="M 106.623,150.623 C 111.901,150.623 116.181,154.903 116.181,160.181 C 116.181,165.46 111.901,169.74 106.623,169.74 C 101.344,169.74 97.064,165.46 97.064,160.181 C 97.064,154.903 101.344,150.623 106.623,150.623 Z "/>
			<path id="dp_path005" fill="#91c054" fill-rule="evenodd" stroke="#91c054" stroke-width="1.33333" d="M 167.977,142.564 L 179.667,142.564 L 179.667,170.3 L 167.977,170.3 Z "/>
			<path id="dp_path006" fill="#91c054" fill-rule="evenodd" stroke="#91c054" stroke-width="1.33333" d="M 189.655,122.504 L 212.332,122.504 L 212.332,145.181 L 189.655,145.181 Z "/>
			<path id="dp_path007" fill="#91c054" fill-rule="evenodd" stroke="#91c054" stroke-width="1.33333" d="M 189.655,148.504 L 212.332,148.504 L 212.332,171.181 L 189.655,171.181 Z "/>
			<path id="dp_path008" fill="#91c054" fill-rule="evenodd" stroke="#91c054" stroke-width="1.33333" d="M 215.655,122.504 L 238.332,122.504 L 238.332,145.181 L 215.655,145.181 Z "/>
			<path id="dp_path009" fill="#91c054" fill-rule="evenodd" stroke="#91c054" stroke-width="1.33333" d="M 215.655,148.504 L 238.332,148.504 L 238.332,171.181 L 215.655,171.181 Z "/>
			<path id="dp_path010" fill="#91c054" fill-rule="evenodd" stroke="#91c054" stroke-width="1.33333" d="M 245.655,122.504 L 268.332,122.504 L 268.332,145.181 L 245.655,145.181 Z "/>
			<path id="dp_path011" fill="#91c054" fill-rule="evenodd" stroke="#91c054" stroke-width="1.33333" d="M 245.655,148.504 L 268.332,148.504 L 268.332,171.181 L 245.655,171.181 Z "/>
			<path id="dp_path012" fill="#91c054" fill-rule="evenodd" stroke="#91c054" stroke-width="1.33333" d="M 271.655,122.504 L 294.332,122.504 L 294.332,145.181 L 271.655,145.181 Z "/>
			<path id="dp_path013" fill="#91c054" fill-rule="evenodd" stroke="#91c054" stroke-width="1.33333" d="M 271.655,148.504 L 294.332,148.504 L 294.332,171.181 L 271.655,171.181 Z "/>
			<path id="dp_path014" fill="#91c054" fill-rule="evenodd" stroke="#91c054" stroke-width="1.33333" d="M 301.157,153.181 L 327.275,153.181 L 327.275,171.633 L 301.157,171.633 Z "/>
			<path id="dp_path015" fill="#91c054" fill-rule="evenodd" stroke="#91c054" stroke-width="1.33333" d="M 455.457,157.407 L 547.928,157.407 L 547.928,171.633 L 455.457,171.633 Z "/>
			<path id="dp_path016" fill="#91c054" fill-rule="evenodd" stroke="#91c054" stroke-width="1.33333" d="M 434.932,171.852 L 378.436,171.852 L 375.308,157.171 L 438.661,157.171 Z "/>
			<path id="dp_path017" fill="#91c054" fill-rule="evenodd" stroke="#91c054" stroke-width="1.33333" d="M 604.284,153.181 C 609.563,153.181 613.843,157.461 613.843,162.74 C 613.843,168.019 609.563,172.299 604.284,172.299 C 599.005,172.299 594.725,168.019 594.725,162.74 C 594.725,157.461 599.005,153.181 604.284,153.181 Z "/>
			<path id="dp_path018" fill="#91c054" fill-rule="evenodd" stroke="#91c054" stroke-width="1.33333" d="M 331.157,153.181 L 357.275,153.181 L 357.275,171.633 L 331.157,171.633 Z "/>
			<path id="dp_path019" fill="#91c054" fill-rule="evenodd" stroke="#91c054" stroke-width="1.33333" d="M 624.461,152.515 L 667.755,152.515 L 667.755,170.967 L 624.461,170.967 Z "/>
			<path id="dp_path020" fill="white" fill-rule="evenodd" stroke="#91c054" stroke-width="1.33333" d="M 688,108.828 L 729.228,108.828 L 729.228,176.857 L 688,176.857 Z "/>
		</g>
	</g>
</g>
<g id="iPASO400_Icons">
	<g id="iPASO400">
		<g transform="matrix(1,0,0,1,-25.888,-230.089)">
			<path id="dp_path001" fill="#547fa8" fill-rule="evenodd" stroke="#547fa8" stroke-width="1.33333" d="M 26.5547,230.755 L 736.468,230.755 L 736.468,339.86 L 26.5547,339.86 Z "/>
			<path id="dp_path002" fill="white" fill-rule="evenodd" stroke="#547fa8" stroke-width="1.33333" d="M 57.4133,257.008 L 208.593,257.008 L 208.593,292.563 L 57.4133,292.563 Z "/>
			<path id="dp_path003" fill="white" fill-rule="evenodd" stroke="#547fa8" stroke-width="1.33333" d="M 57.4133,299.828 L 523.055,299.828 L 523.055,334.803 L 57.4133,334.803 Z "/>
			<path id="dp_path004" fill="white" fill-rule="evenodd" stroke="#547fa8" stroke-width="1.33333" d="M 688,257.072 L 729.228,257.072 L 729.228,334.801 L 688,334.801 Z "/>
			<path id="dp_path005" fill="white" fill-rule="evenodd" stroke="#547fa8" stroke-width="1.33333" d="M 214.413,257.008 L 365.593,257.008 L 365.593,292.563 L 214.413,292.563 Z "/>
			<path id="dp_path006" fill="white" fill-rule="evenodd" stroke="#547fa8" stroke-width="1.33333" d="M 372.413,257.008 L 523.593,257.008 L 523.593,292.561 L 372.413,292.561 Z "/>
			<path id="dp_path007" fill="#547fa8" fill-rule="evenodd" stroke="#547fa8" stroke-width="1.33333" d="M 82.6227,266.623 C 87.9013,266.623 92.1813,270.903 92.1813,276.181 C 92.1813,281.46 87.9013,285.74 82.6227,285.74 C 77.344,285.74 73.064,281.46 73.064,276.181 C 73.064,270.903 77.344,266.623 82.6227,266.623 Z "/>
			<path id="dp_path008" fill="#547fa8" fill-rule="evenodd" stroke="#547fa8" stroke-width="1.33333" d="M 238.623,266.623 C 243.901,266.623 248.181,270.903 248.181,276.181 C 248.181,281.46 243.901,285.74 238.623,285.74 C 233.344,285.74 229.064,281.46 229.064,276.181 C 229.064,270.903 233.344,266.623 238.623,266.623 Z "/>
			<path id="dp_path009" fill="#547fa8" fill-rule="evenodd" stroke="#547fa8" stroke-width="1.33333" d="M 129.977,303.564 L 141.667,303.564 L 141.667,331.3 L 129.977,331.3 Z "/>
			<path id="dp_path010" fill="#547fa8" fill-rule="evenodd" stroke="#547fa8" stroke-width="1.33333" d="M 148.655,306.504 L 171.332,306.504 L 171.332,329.181 L 148.655,329.181 Z "/>
			<path id="dp_path011" fill="#547fa8" fill-rule="evenodd" stroke="#547fa8" stroke-width="1.33333" d="M 174.655,306.504 L 197.332,306.504 L 197.332,329.181 L 174.655,329.181 Z "/>
			<path id="dp_path012" fill="#547fa8" fill-rule="evenodd" stroke="#547fa8" stroke-width="1.33333" d="M 200.655,306.504 L 223.332,306.504 L 223.332,329.181 L 200.655,329.181 Z "/>
			<path id="dp_path013" fill="#547fa8" fill-rule="evenodd" stroke="#547fa8" stroke-width="1.33333" d="M 226.655,306.504 L 249.332,306.504 L 249.332,329.181 L 226.655,329.181 Z "/>
			<path id="dp_path014" fill="#547fa8" fill-rule="evenodd" stroke="#547fa8" stroke-width="1.33333" d="M 256.157,310.181 L 282.275,310.181 L 282.275,328.633 L 256.157,328.633 Z "/>
			<path id="dp_path015" fill="#547fa8" fill-rule="evenodd" stroke="#547fa8" stroke-width="1.33333" d="M 286.157,310.181 L 312.275,310.181 L 312.275,328.633 L 286.157,328.633 Z "/>
			<path id="dp_path016" fill="#547fa8" fill-rule="evenodd" stroke="#547fa8" stroke-width="1.33333" d="M 416.179,313.8 L 508.649,313.8 L 508.649,328.027 L 416.179,328.027 Z "/>
			<path id="dp_path017" fill="#547fa8" fill-rule="evenodd" stroke="#547fa8" stroke-width="1.33333" d="M 395.653,328.245 L 339.157,328.245 L 336.029,313.564 L 399.383,313.564 Z "/>
			<path id="dp_path018" fill="white" fill-rule="evenodd" stroke="#547fa8" stroke-width="1.33333" d="M 529.413,257.008 L 680.593,257.008 L 680.593,292.563 L 529.413,292.563 Z "/>
			<path id="dp_path019" fill="white" fill-rule="evenodd" stroke="#547fa8" stroke-width="1.33333" d="M 529.136,299.829 L 601.521,299.829 L 601.521,334.804 L 529.136,334.804 Z "/>
			<path id="dp_path020" fill="white" fill-rule="evenodd" stroke="#547fa8" stroke-width="1.33333" d="M 608.371,299.829 L 680.756,299.829 L 680.756,334.804 L 608.371,334.804 Z "/>
			<path id="dp_path021" fill="#547fa8" fill-rule="evenodd" stroke="#547fa8" stroke-width="1.33333" d="M 616.461,307.515 L 659.755,307.515 L 659.755,325.967 L 616.461,325.967 Z "/>
			<path id="dp_path022" fill="#547fa8" fill-rule="evenodd" stroke="#547fa8" stroke-width="1.33333" d="M 536.461,307.515 L 579.755,307.515 L 579.755,325.967 L 536.461,325.967 Z "/>
		</g>
	</g>
	<g id="iPASO400_rollover">
		<g transform="matrix(1,0,0,1,-25.888,-230.089)">
			<path id="dp_path001" fill="#10547d" fill-rule="evenodd" stroke="#10547d" stroke-width="1.33333" d="M 26.5547,230.755 L 736.468,230.755 L 736.468,339.86 L 26.5547,339.86 Z "/>
			<path id="dp_path002" fill="white" fill-rule="evenodd" stroke="#10547d" stroke-width="1.33333" d="M 57.4133,257.008 L 208.593,257.008 L 208.593,292.563 L 57.4133,292.563 Z "/>
			<path id="dp_path003" fill="white" fill-rule="evenodd" stroke="#10547d" stroke-width="1.33333" d="M 57.4133,299.828 L 523.055,299.828 L 523.055,334.803 L 57.4133,334.803 Z "/>
			<path id="dp_path004" fill="white" fill-rule="evenodd" stroke="#10547d" stroke-width="1.33333" d="M 688,257.072 L 729.228,257.072 L 729.228,334.801 L 688,334.801 Z "/>
			<path id="dp_path005" fill="white" fill-rule="evenodd" stroke="#10547d" stroke-width="1.33333" d="M 214.413,257.008 L 365.593,257.008 L 365.593,292.563 L 214.413,292.563 Z "/>
			<path id="dp_path006" fill="white" fill-rule="evenodd" stroke="#10547d" stroke-width="1.33333" d="M 372.413,257.008 L 523.593,257.008 L 523.593,292.561 L 372.413,292.561 Z "/>
			<path id="dp_path007" fill="#10547d" fill-rule="evenodd" stroke="#10547d" stroke-width="1.33333" d="M 82.6227,266.623 C 87.9013,266.623 92.1813,270.903 92.1813,276.181 C 92.1813,281.46 87.9013,285.74 82.6227,285.74 C 77.344,285.74 73.064,281.46 73.064,276.181 C 73.064,270.903 77.344,266.623 82.6227,266.623 Z "/>
			<path id="dp_path008" fill="#10547d" fill-rule="evenodd" stroke="#10547d" stroke-width="1.33333" d="M 238.623,266.623 C 243.901,266.623 248.181,270.903 248.181,276.181 C 248.181,281.46 243.901,285.74 238.623,285.74 C 233.344,285.74 229.064,281.46 229.064,276.181 C 229.064,270.903 233.344,266.623 238.623,266.623 Z "/>
			<path id="dp_path009" fill="#10547d" fill-rule="evenodd" stroke="#10547d" stroke-width="1.33333" d="M 129.977,303.564 L 141.667,303.564 L 141.667,331.3 L 129.977,331.3 Z "/>
			<path id="dp_path010" fill="#10547d" fill-rule="evenodd" stroke="#10547d" stroke-width="1.33333" d="M 148.655,306.504 L 171.332,306.504 L 171.332,329.181 L 148.655,329.181 Z "/>
			<path id="dp_path011" fill="#10547d" fill-rule="evenodd" stroke="#10547d" stroke-width="1.33333" d="M 174.655,306.504 L 197.332,306.504 L 197.332,329.181 L 174.655,329.181 Z "/>
			<path id="dp_path012" fill="#10547d" fill-rule="evenodd" stroke="#10547d" stroke-width="1.33333" d="M 200.655,306.504 L 223.332,306.504 L 223.332,329.181 L 200.655,329.181 Z "/>
			<path id="dp_path013" fill="#10547d" fill-rule="evenodd" stroke="#10547d" stroke-width="1.33333" d="M 226.655,306.504 L 249.332,306.504 L 249.332,329.181 L 226.655,329.181 Z "/>
			<path id="dp_path014" fill="#10547d" fill-rule="evenodd" stroke="#10547d" stroke-width="1.33333" d="M 256.157,310.181 L 282.275,310.181 L 282.275,328.633 L 256.157,328.633 Z "/>
			<path id="dp_path015" fill="#10547d" fill-rule="evenodd" stroke="#10547d" stroke-width="1.33333" d="M 286.157,310.181 L 312.275,310.181 L 312.275,328.633 L 286.157,328.633 Z "/>
			<path id="dp_path016" fill="#10547d" fill-rule="evenodd" stroke="#10547d" stroke-width="1.33333" d="M 416.179,313.8 L 508.649,313.8 L 508.649,328.027 L 416.179,328.027 Z "/>
			<path id="dp_path017" fill="#10547d" fill-rule="evenodd" stroke="#10547d" stroke-width="1.33333" d="M 395.653,328.245 L 339.157,328.245 L 336.029,313.564 L 399.383,313.564 Z "/>
			<path id="dp_path018" fill="white" fill-rule="evenodd" stroke="#10547d" stroke-width="1.33333" d="M 529.413,257.008 L 680.593,257.008 L 680.593,292.563 L 529.413,292.563 Z "/>
			<path id="dp_path019" fill="white" fill-rule="evenodd" stroke="#10547d" stroke-width="1.33333" d="M 529.136,299.829 L 601.521,299.829 L 601.521,334.804 L 529.136,334.804 Z "/>
			<path id="dp_path020" fill="white" fill-rule="evenodd" stroke="#10547d" stroke-width="1.33333" d="M 608.371,299.829 L 680.756,299.829 L 680.756,334.804 L 608.371,334.804 Z "/>
			<path id="dp_path021" fill="#10547d" fill-rule="evenodd" stroke="#10547d" stroke-width="1.33333" d="M 616.461,307.515 L 659.755,307.515 L 659.755,325.967 L 616.461,325.967 Z "/>
			<path id="dp_path022" fill="#10547d" fill-rule="evenodd" stroke="#10547d" stroke-width="1.33333" d="M 536.461,307.515 L 579.755,307.515 L 579.755,325.967 L 536.461,325.967 Z "/>
		</g>
	</g>
	<g id="iPASO400_active">
		<g transform="matrix(1,0,0,1,-25.888,-230.089)">
			<path id="dp_path001" fill="#91c054" fill-rule="evenodd" stroke="#91c054" stroke-width="1.33333" d="M 26.5547,230.755 L 736.468,230.755 L 736.468,339.86 L 26.5547,339.86 Z "/>
			<path id="dp_path002" fill="white" fill-rule="evenodd" stroke="#91c054" stroke-width="1.33333" d="M 57.4133,257.008 L 208.593,257.008 L 208.593,292.563 L 57.4133,292.563 Z "/>
			<path id="dp_path003" fill="white" fill-rule="evenodd" stroke="#91c054" stroke-width="1.33333" d="M 57.4133,299.828 L 523.055,299.828 L 523.055,334.803 L 57.4133,334.803 Z "/>
			<path id="dp_path004" fill="white" fill-rule="evenodd" stroke="#91c054" stroke-width="1.33333" d="M 688,257.072 L 729.228,257.072 L 729.228,334.801 L 688,334.801 Z "/>
			<path id="dp_path005" fill="white" fill-rule="evenodd" stroke="#91c054" stroke-width="1.33333" d="M 214.413,257.008 L 365.593,257.008 L 365.593,292.563 L 214.413,292.563 Z "/>
			<path id="dp_path006" fill="white" fill-rule="evenodd" stroke="#91c054" stroke-width="1.33333" d="M 372.413,257.008 L 523.593,257.008 L 523.593,292.561 L 372.413,292.561 Z "/>
			<path id="dp_path007" fill="#91c054" fill-rule="evenodd" stroke="#91c054" stroke-width="1.33333" d="M 82.6227,266.623 C 87.9013,266.623 92.1813,270.903 92.1813,276.181 C 92.1813,281.46 87.9013,285.74 82.6227,285.74 C 77.344,285.74 73.064,281.46 73.064,276.181 C 73.064,270.903 77.344,266.623 82.6227,266.623 Z "/>
			<path id="dp_path008" fill="#91c054" fill-rule="evenodd" stroke="#91c054" stroke-width="1.33333" d="M 238.623,266.623 C 243.901,266.623 248.181,270.903 248.181,276.181 C 248.181,281.46 243.901,285.74 238.623,285.74 C 233.344,285.74 229.064,281.46 229.064,276.181 C 229.064,270.903 233.344,266.623 238.623,266.623 Z "/>
			<path id="dp_path009" fill="#91c054" fill-rule="evenodd" stroke="#91c054" stroke-width="1.33333" d="M 129.977,303.564 L 141.667,303.564 L 141.667,331.3 L 129.977,331.3 Z "/>
			<path id="dp_path010" fill="#91c054" fill-rule="evenodd" stroke="#91c054" stroke-width="1.33333" d="M 148.655,306.504 L 171.332,306.504 L 171.332,329.181 L 148.655,329.181 Z "/>
			<path id="dp_path011" fill="#91c054" fill-rule="evenodd" stroke="#91c054" stroke-width="1.33333" d="M 174.655,306.504 L 197.332,306.504 L 197.332,329.181 L 174.655,329.181 Z "/>
			<path id="dp_path012" fill="#91c054" fill-rule="evenodd" stroke="#91c054" stroke-width="1.33333" d="M 200.655,306.504 L 223.332,306.504 L 223.332,329.181 L 200.655,329.181 Z "/>
			<path id="dp_path013" fill="#91c054" fill-rule="evenodd" stroke="#91c054" stroke-width="1.33333" d="M 226.655,306.504 L 249.332,306.504 L 249.332,329.181 L 226.655,329.181 Z "/>
			<path id="dp_path014" fill="#91c054" fill-rule="evenodd" stroke="#91c054" stroke-width="1.33333" d="M 256.157,310.181 L 282.275,310.181 L 282.275,328.633 L 256.157,328.633 Z "/>
			<path id="dp_path015" fill="#91c054" fill-rule="evenodd" stroke="#91c054" stroke-width="1.33333" d="M 286.157,310.181 L 312.275,310.181 L 312.275,328.633 L 286.157,328.633 Z "/>
			<path id="dp_path016" fill="#91c054" fill-rule="evenodd" stroke="#91c054" stroke-width="1.33333" d="M 416.179,313.8 L 508.649,313.8 L 508.649,328.027 L 416.179,328.027 Z "/>
			<path id="dp_path017" fill="#91c054" fill-rule="evenodd" stroke="#91c054" stroke-width="1.33333" d="M 395.653,328.245 L 339.157,328.245 L 336.029,313.564 L 399.383,313.564 Z "/>
			<path id="dp_path018" fill="white" fill-rule="evenodd" stroke="#91c054" stroke-width="1.33333" d="M 529.413,257.008 L 680.593,257.008 L 680.593,292.563 L 529.413,292.563 Z "/>
			<path id="dp_path019" fill="white" fill-rule="evenodd" stroke="#91c054" stroke-width="1.33333" d="M 529.136,299.829 L 601.521,299.829 L 601.521,334.804 L 529.136,334.804 Z "/>
			<path id="dp_path020" fill="white" fill-rule="evenodd" stroke="#91c054" stroke-width="1.33333" d="M 608.371,299.829 L 680.756,299.829 L 680.756,334.804 L 608.371,334.804 Z "/>
			<path id="dp_path021" fill="#91c054" fill-rule="evenodd" stroke="#91c054" stroke-width="1.33333" d="M 616.461,307.515 L 659.755,307.515 L 659.755,325.967 L 616.461,325.967 Z "/>
			<path id="dp_path022" fill="#91c054" fill-rule="evenodd" stroke="#91c054" stroke-width="1.33333" d="M 536.461,307.515 L 579.755,307.515 L 579.755,325.967 L 536.461,325.967 Z "/>
		</g>
	</g>
</g>
<g id="iPASO1000_Icons">
	<g id="iPASO1000">
		<g transform="matrix(1,0,0,1,-25.92,-388.212)">
			<path id="dp_path001" fill="#547fa8" fill-rule="evenodd" stroke="#547fa8" stroke-width="1.33333" d="M 26.5867,388.879 L 736.431,388.879 L 736.431,687.873 L 26.5867,687.873 Z "/>
			<path id="dp_path002" fill="white" fill-rule="evenodd" stroke="#547fa8" stroke-width="1.33333" d="M 57.4133,415.749 L 208.593,415.749 L 208.593,453.543 L 57.4133,453.543 Z "/>
			<path id="dp_path003" fill="white" fill-rule="evenodd" stroke="#547fa8" stroke-width="1.33333" d="M 214.413,415.748 L 365.593,415.748 L 365.593,453.543 L 214.413,453.543 Z "/>
			<path id="dp_path004" fill="white" fill-rule="evenodd" stroke="#547fa8" stroke-width="1.33333" d="M 529.272,415.749 L 680.316,415.749 L 680.316,453.543 L 529.272,453.543 Z "/>
			<path id="dp_path005" fill="#547fa8" fill-rule="evenodd" stroke="#547fa8" stroke-width="1.33333" d="M 82.6227,426.623 C 87.9013,426.623 92.1813,430.903 92.1813,436.181 C 92.1813,441.46 87.9013,445.74 82.6227,445.74 C 77.344,445.74 73.064,441.46 73.064,436.181 C 73.064,430.903 77.344,426.623 82.6227,426.623 Z "/>
			<path id="dp_path006" fill="#547fa8" fill-rule="evenodd" stroke="#547fa8" stroke-width="1.33333" d="M 238.623,426.623 C 243.901,426.623 248.181,430.903 248.181,436.181 C 248.181,441.46 243.901,445.74 238.623,445.74 C 233.344,445.74 229.064,441.46 229.064,436.181 C 229.064,430.903 233.344,426.623 238.623,426.623 Z "/>
			<path id="dp_path007" fill="white" fill-rule="evenodd" stroke="#547fa8" stroke-width="1.33333" d="M 371.415,415.748 L 522.459,415.748 L 522.459,453.543 L 371.415,453.543 Z "/>
			<path id="dp_path008" fill="white" fill-rule="evenodd" stroke="#547fa8" stroke-width="1.33333" d="M 57.4133,461.749 L 208.593,461.749 L 208.593,499.543 L 57.4133,499.543 Z "/>
			<path id="dp_path009" fill="white" fill-rule="evenodd" stroke="#547fa8" stroke-width="1.33333" d="M 214.413,461.748 L 365.593,461.748 L 365.593,499.543 L 214.413,499.543 Z "/>
			<path id="dp_path010" fill="white" fill-rule="evenodd" stroke="#547fa8" stroke-width="1.33333" d="M 529.272,461.749 L 680.316,461.749 L 680.316,499.543 L 529.272,499.543 Z "/>
			<path id="dp_path011" fill="#547fa8" fill-rule="evenodd" stroke="#547fa8" stroke-width="1.33333" d="M 82.6227,472.623 C 87.9013,472.623 92.1813,476.903 92.1813,482.181 C 92.1813,487.46 87.9013,491.74 82.6227,491.74 C 77.344,491.74 73.064,487.46 73.064,482.181 C 73.064,476.903 77.344,472.623 82.6227,472.623 Z "/>
			<path id="dp_path012" fill="#547fa8" fill-rule="evenodd" stroke="#547fa8" stroke-width="1.33333" d="M 238.623,472.623 C 243.901,472.623 248.181,476.903 248.181,482.181 C 248.181,487.46 243.901,491.74 238.623,491.74 C 233.344,491.74 229.064,487.46 229.064,482.181 C 229.064,476.903 233.344,472.623 238.623,472.623 Z "/>
			<path id="dp_path013" fill="white" fill-rule="evenodd" stroke="#547fa8" stroke-width="1.33333" d="M 371.415,461.748 L 522.459,461.748 L 522.459,499.543 L 371.415,499.543 Z "/>
			<path id="dp_path014" fill="white" fill-rule="evenodd" stroke="#547fa8" stroke-width="1.33333" d="M 57.4133,506.749 L 208.593,506.749 L 208.593,544.543 L 57.4133,544.543 Z "/>
			<path id="dp_path015" fill="white" fill-rule="evenodd" stroke="#547fa8" stroke-width="1.33333" d="M 214.413,506.748 L 680.311,506.748 L 680.311,544.543 L 214.413,544.543 Z "/>
			<path id="dp_path016" fill="white" fill-rule="evenodd" stroke="#547fa8" stroke-width="1.33333" d="M 57.4133,551.749 L 208.593,551.749 L 208.593,589.543 L 57.4133,589.543 Z "/>
			<path id="dp_path017" fill="white" fill-rule="evenodd" stroke="#547fa8" stroke-width="1.33333" d="M 214.213,551.811 L 680.111,551.811 L 680.111,589.605 L 214.213,589.605 Z "/>
			<path id="dp_path018" fill="white" fill-rule="evenodd" stroke="#547fa8" stroke-width="1.33333" d="M 57.4133,597.749 L 208.593,597.749 L 208.593,635.543 L 57.4133,635.543 Z "/>
			<path id="dp_path019" fill="white" fill-rule="evenodd" stroke="#547fa8" stroke-width="1.33333" d="M 214.413,597.748 L 365.593,597.748 L 365.593,635.543 L 214.413,635.543 Z "/>
			<path id="dp_path020" fill="white" fill-rule="evenodd" stroke="#547fa8" stroke-width="1.33333" d="M 529.272,597.749 L 680.316,597.749 L 680.316,635.543 L 529.272,635.543 Z "/>
			<path id="dp_path021" fill="white" fill-rule="evenodd" stroke="#547fa8" stroke-width="1.33333" d="M 371.415,597.748 L 522.459,597.748 L 522.459,635.543 L 371.415,635.543 Z "/>
			<path id="dp_path022" fill="white" fill-rule="evenodd" stroke="#547fa8" stroke-width="1.33333" d="M 57.4133,642.749 L 208.593,642.749 L 208.593,680.543 L 57.4133,680.543 Z "/>
			<path id="dp_path023" fill="white" fill-rule="evenodd" stroke="#547fa8" stroke-width="1.33333" d="M 214.413,642.748 L 443.584,642.748 L 443.584,680.543 L 214.413,680.543 Z "/>
			<path id="dp_path024" fill="white" fill-rule="evenodd" stroke="#547fa8" stroke-width="1.33333" d="M 451.204,642.749 L 680.315,642.749 L 680.315,680.543 L 451.204,680.543 Z "/>
			<path id="dp_path025" fill="#547fa8" fill-rule="evenodd" stroke="#547fa8" stroke-width="1.33333" d="M 297.361,651.304 L 365.392,651.304 L 365.392,669.756 L 297.361,669.756 Z "/>
			<path id="dp_path026" fill="#547fa8" fill-rule="evenodd" stroke="#547fa8" stroke-width="1.33333" d="M 536.151,651.08 L 604.181,651.08 L 604.181,669.532 L 536.151,669.532 Z "/>
			<path id="dp_path027" fill="#547fa8" fill-rule="evenodd" stroke="#547fa8" stroke-width="1.33333" d="M 76.6547,515.504 L 99.332,515.504 L 99.332,538.181 L 76.6547,538.181 Z "/>
			<path id="dp_path028" fill="#547fa8" fill-rule="evenodd" stroke="#547fa8" stroke-width="1.33333" d="M 102.655,515.504 L 125.332,515.504 L 125.332,538.181 L 102.655,538.181 Z "/>
			<path id="dp_path029" fill="#547fa8" fill-rule="evenodd" stroke="#547fa8" stroke-width="1.33333" d="M 132.157,519.181 L 158.275,519.181 L 158.275,537.633 L 132.157,537.633 Z "/>
			<path id="dp_path030" fill="#547fa8" fill-rule="evenodd" stroke="#547fa8" stroke-width="1.33333" d="M 162.157,519.181 L 188.275,519.181 L 188.275,537.633 L 162.157,537.633 Z "/>
			<path id="dp_path031" fill="#547fa8" fill-rule="evenodd" stroke="#547fa8" stroke-width="1.33333" d="M 76.6547,560.504 L 99.332,560.504 L 99.332,583.181 L 76.6547,583.181 Z "/>
			<path id="dp_path032" fill="#547fa8" fill-rule="evenodd" stroke="#547fa8" stroke-width="1.33333" d="M 102.655,560.504 L 125.332,560.504 L 125.332,583.181 L 102.655,583.181 Z "/>
			<path id="dp_path033" fill="#547fa8" fill-rule="evenodd" stroke="#547fa8" stroke-width="1.33333" d="M 132.157,564.181 L 158.275,564.181 L 158.275,582.633 L 132.157,582.633 Z "/>
			<path id="dp_path034" fill="#547fa8" fill-rule="evenodd" stroke="#547fa8" stroke-width="1.33333" d="M 162.157,564.181 L 188.275,564.181 L 188.275,582.633 L 162.157,582.633 Z "/>
			<path id="dp_path035" fill="#547fa8" fill-rule="evenodd" stroke="#547fa8" stroke-width="1.33333" d="M 264.127,512.016 L 275.816,512.016 L 275.816,539.752 L 264.127,539.752 Z "/>
			<path id="dp_path036" fill="#547fa8" fill-rule="evenodd" stroke="#547fa8" stroke-width="1.33333" d="M 264.127,556.016 L 275.816,556.016 L 275.816,583.752 L 264.127,583.752 Z "/>
			<path id="dp_path037" fill="#547fa8" fill-rule="evenodd" stroke="#547fa8" stroke-width="1.33333" d="M 295.583,514.796 L 318.26,514.796 L 318.26,537.473 L 295.583,537.473 Z "/>
			<path id="dp_path038" fill="#547fa8" fill-rule="evenodd" stroke="#547fa8" stroke-width="1.33333" d="M 325.583,514.796 L 348.26,514.796 L 348.26,537.473 L 325.583,537.473 Z "/>
			<path id="dp_path039" fill="#547fa8" fill-rule="evenodd" stroke="#547fa8" stroke-width="1.33333" d="M 355.583,514.796 L 378.26,514.796 L 378.26,537.473 L 355.583,537.473 Z "/>
			<path id="dp_path040" fill="#547fa8" fill-rule="evenodd" stroke="#547fa8" stroke-width="1.33333" d="M 295.583,558.796 L 318.26,558.796 L 318.26,581.473 L 295.583,581.473 Z "/>
			<path id="dp_path041" fill="#547fa8" fill-rule="evenodd" stroke="#547fa8" stroke-width="1.33333" d="M 325.583,558.796 L 348.26,558.796 L 348.26,581.473 L 325.583,581.473 Z "/>
			<path id="dp_path042" fill="#547fa8" fill-rule="evenodd" stroke="#547fa8" stroke-width="1.33333" d="M 355.583,558.796 L 378.26,558.796 L 378.26,581.473 L 355.583,581.473 Z "/>
			<path id="dp_path043" fill="#547fa8" fill-rule="evenodd" stroke="#547fa8" stroke-width="1.33333" d="M 397.308,563.596 L 423.425,563.596 L 423.425,582.048 L 397.308,582.048 Z "/>
			<path id="dp_path044" fill="#547fa8" fill-rule="evenodd" stroke="#547fa8" stroke-width="1.33333" d="M 427.308,563.596 L 453.425,563.596 L 453.425,582.048 L 427.308,582.048 Z "/>
			<path id="dp_path045" fill="#547fa8" fill-rule="evenodd" stroke="#547fa8" stroke-width="1.33333" d="M 535.845,580.489 L 479.349,580.489 L 476.221,565.808 L 539.575,565.808 Z "/>
			<path id="dp_path046" fill="#547fa8" fill-rule="evenodd" stroke="#547fa8" stroke-width="1.33333" d="M 397.308,518.596 L 423.425,518.596 L 423.425,537.048 L 397.308,537.048 Z "/>
			<path id="dp_path047" fill="#547fa8" fill-rule="evenodd" stroke="#547fa8" stroke-width="1.33333" d="M 427.308,518.596 L 453.425,518.596 L 453.425,537.048 L 427.308,537.048 Z "/>
			<path id="dp_path048" fill="#547fa8" fill-rule="evenodd" stroke="#547fa8" stroke-width="1.33333" d="M 535.845,535.489 L 479.349,535.489 L 476.221,520.808 L 539.575,520.808 Z "/>
			<path id="dp_path049" fill="#547fa8" fill-rule="evenodd" stroke="#547fa8" stroke-width="1.33333" d="M 76.6547,651.504 L 99.332,651.504 L 99.332,674.181 L 76.6547,674.181 Z "/>
			<path id="dp_path050" fill="#547fa8" fill-rule="evenodd" stroke="#547fa8" stroke-width="1.33333" d="M 102.655,651.504 L 125.332,651.504 L 125.332,674.181 L 102.655,674.181 Z "/>
			<path id="dp_path051" fill="#547fa8" fill-rule="evenodd" stroke="#547fa8" stroke-width="1.33333" d="M 176.716,670.32 L 144.267,670.32 L 142.471,655.639 L 178.859,655.639 Z "/>
			<path id="dp_path052" fill="white" fill-rule="evenodd" stroke="#547fa8" stroke-width="1.33333" d="M 688,415.751 L 729.228,415.751 L 729.228,544.251 L 688,544.251 Z "/>
			<path id="dp_path053" fill="white" fill-rule="evenodd" stroke="#547fa8" stroke-width="1.33333" d="M 688,551.811 L 729.228,551.811 L 729.228,680.315 L 688,680.315 Z "/>
		</g>
	</g>
	<g id="iPASO1000_rollover">
		<g transform="matrix(1,0,0,1,-25.92,-388.212)">
			<path id="dp_path001" fill="#10547d" fill-rule="evenodd" stroke="#10547d" stroke-width="1.33333" d="M 26.5867,388.879 L 736.431,388.879 L 736.431,687.873 L 26.5867,687.873 Z "/>
			<path id="dp_path002" fill="white" fill-rule="evenodd" stroke="#10547d" stroke-width="1.33333" d="M 57.4133,415.749 L 208.593,415.749 L 208.593,453.543 L 57.4133,453.543 Z "/>
			<path id="dp_path003" fill="white" fill-rule="evenodd" stroke="#10547d" stroke-width="1.33333" d="M 214.413,415.748 L 365.593,415.748 L 365.593,453.543 L 214.413,453.543 Z "/>
			<path id="dp_path004" fill="white" fill-rule="evenodd" stroke="#10547d" stroke-width="1.33333" d="M 529.272,415.749 L 680.316,415.749 L 680.316,453.543 L 529.272,453.543 Z "/>
			<path id="dp_path005" fill="#10547d" fill-rule="evenodd" stroke="#10547d" stroke-width="1.33333" d="M 82.6227,426.623 C 87.9013,426.623 92.1813,430.903 92.1813,436.181 C 92.1813,441.46 87.9013,445.74 82.6227,445.74 C 77.344,445.74 73.064,441.46 73.064,436.181 C 73.064,430.903 77.344,426.623 82.6227,426.623 Z "/>
			<path id="dp_path006" fill="#10547d" fill-rule="evenodd" stroke="#10547d" stroke-width="1.33333" d="M 238.623,426.623 C 243.901,426.623 248.181,430.903 248.181,436.181 C 248.181,441.46 243.901,445.74 238.623,445.74 C 233.344,445.74 229.064,441.46 229.064,436.181 C 229.064,430.903 233.344,426.623 238.623,426.623 Z "/>
			<path id="dp_path007" fill="white" fill-rule="evenodd" stroke="#10547d" stroke-width="1.33333" d="M 371.415,415.748 L 522.459,415.748 L 522.459,453.543 L 371.415,453.543 Z "/>
			<path id="dp_path008" fill="white" fill-rule="evenodd" stroke="#10547d" stroke-width="1.33333" d="M 57.4133,461.749 L 208.593,461.749 L 208.593,499.543 L 57.4133,499.543 Z "/>
			<path id="dp_path009" fill="white" fill-rule="evenodd" stroke="#10547d" stroke-width="1.33333" d="M 214.413,461.748 L 365.593,461.748 L 365.593,499.543 L 214.413,499.543 Z "/>
			<path id="dp_path010" fill="white" fill-rule="evenodd" stroke="#10547d" stroke-width="1.33333" d="M 529.272,461.749 L 680.316,461.749 L 680.316,499.543 L 529.272,499.543 Z "/>
			<path id="dp_path011" fill="#10547d" fill-rule="evenodd" stroke="#10547d" stroke-width="1.33333" d="M 82.6227,472.623 C 87.9013,472.623 92.1813,476.903 92.1813,482.181 C 92.1813,487.46 87.9013,491.74 82.6227,491.74 C 77.344,491.74 73.064,487.46 73.064,482.181 C 73.064,476.903 77.344,472.623 82.6227,472.623 Z "/>
			<path id="dp_path012" fill="#10547d" fill-rule="evenodd" stroke="#10547d" stroke-width="1.33333" d="M 238.623,472.623 C 243.901,472.623 248.181,476.903 248.181,482.181 C 248.181,487.46 243.901,491.74 238.623,491.74 C 233.344,491.74 229.064,487.46 229.064,482.181 C 229.064,476.903 233.344,472.623 238.623,472.623 Z "/>
			<path id="dp_path013" fill="white" fill-rule="evenodd" stroke="#10547d" stroke-width="1.33333" d="M 371.415,461.748 L 522.459,461.748 L 522.459,499.543 L 371.415,499.543 Z "/>
			<path id="dp_path014" fill="white" fill-rule="evenodd" stroke="#10547d" stroke-width="1.33333" d="M 57.4133,506.749 L 208.593,506.749 L 208.593,544.543 L 57.4133,544.543 Z "/>
			<path id="dp_path015" fill="white" fill-rule="evenodd" stroke="#10547d" stroke-width="1.33333" d="M 214.413,506.748 L 680.311,506.748 L 680.311,544.543 L 214.413,544.543 Z "/>
			<path id="dp_path016" fill="white" fill-rule="evenodd" stroke="#10547d" stroke-width="1.33333" d="M 57.4133,551.749 L 208.593,551.749 L 208.593,589.543 L 57.4133,589.543 Z "/>
			<path id="dp_path017" fill="white" fill-rule="evenodd" stroke="#10547d" stroke-width="1.33333" d="M 214.213,551.811 L 680.111,551.811 L 680.111,589.605 L 214.213,589.605 Z "/>
			<path id="dp_path018" fill="white" fill-rule="evenodd" stroke="#10547d" stroke-width="1.33333" d="M 57.4133,597.749 L 208.593,597.749 L 208.593,635.543 L 57.4133,635.543 Z "/>
			<path id="dp_path019" fill="white" fill-rule="evenodd" stroke="#10547d" stroke-width="1.33333" d="M 214.413,597.748 L 365.593,597.748 L 365.593,635.543 L 214.413,635.543 Z "/>
			<path id="dp_path020" fill="white" fill-rule="evenodd" stroke="#10547d" stroke-width="1.33333" d="M 529.272,597.749 L 680.316,597.749 L 680.316,635.543 L 529.272,635.543 Z "/>
			<path id="dp_path021" fill="white" fill-rule="evenodd" stroke="#10547d" stroke-width="1.33333" d="M 371.415,597.748 L 522.459,597.748 L 522.459,635.543 L 371.415,635.543 Z "/>
			<path id="dp_path022" fill="white" fill-rule="evenodd" stroke="#10547d" stroke-width="1.33333" d="M 57.4133,642.749 L 208.593,642.749 L 208.593,680.543 L 57.4133,680.543 Z "/>
			<path id="dp_path023" fill="white" fill-rule="evenodd" stroke="#10547d" stroke-width="1.33333" d="M 214.413,642.748 L 443.584,642.748 L 443.584,680.543 L 214.413,680.543 Z "/>
			<path id="dp_path024" fill="white" fill-rule="evenodd" stroke="#10547d" stroke-width="1.33333" d="M 451.204,642.749 L 680.315,642.749 L 680.315,680.543 L 451.204,680.543 Z "/>
			<path id="dp_path025" fill="#10547d" fill-rule="evenodd" stroke="#10547d" stroke-width="1.33333" d="M 297.361,651.304 L 365.392,651.304 L 365.392,669.756 L 297.361,669.756 Z "/>
			<path id="dp_path026" fill="#10547d" fill-rule="evenodd" stroke="#10547d" stroke-width="1.33333" d="M 536.151,651.08 L 604.181,651.08 L 604.181,669.532 L 536.151,669.532 Z "/>
			<path id="dp_path027" fill="#10547d" fill-rule="evenodd" stroke="#10547d" stroke-width="1.33333" d="M 76.6547,515.504 L 99.332,515.504 L 99.332,538.181 L 76.6547,538.181 Z "/>
			<path id="dp_path028" fill="#10547d" fill-rule="evenodd" stroke="#10547d" stroke-width="1.33333" d="M 102.655,515.504 L 125.332,515.504 L 125.332,538.181 L 102.655,538.181 Z "/>
			<path id="dp_path029" fill="#10547d" fill-rule="evenodd" stroke="#10547d" stroke-width="1.33333" d="M 132.157,519.181 L 158.275,519.181 L 158.275,537.633 L 132.157,537.633 Z "/>
			<path id="dp_path030" fill="#10547d" fill-rule="evenodd" stroke="#10547d" stroke-width="1.33333" d="M 162.157,519.181 L 188.275,519.181 L 188.275,537.633 L 162.157,537.633 Z "/>
			<path id="dp_path031" fill="#10547d" fill-rule="evenodd" stroke="#10547d" stroke-width="1.33333" d="M 76.6547,560.504 L 99.332,560.504 L 99.332,583.181 L 76.6547,583.181 Z "/>
			<path id="dp_path032" fill="#10547d" fill-rule="evenodd" stroke="#10547d" stroke-width="1.33333" d="M 102.655,560.504 L 125.332,560.504 L 125.332,583.181 L 102.655,583.181 Z "/>
			<path id="dp_path033" fill="#10547d" fill-rule="evenodd" stroke="#10547d" stroke-width="1.33333" d="M 132.157,564.181 L 158.275,564.181 L 158.275,582.633 L 132.157,582.633 Z "/>
			<path id="dp_path034" fill="#10547d" fill-rule="evenodd" stroke="#10547d" stroke-width="1.33333" d="M 162.157,564.181 L 188.275,564.181 L 188.275,582.633 L 162.157,582.633 Z "/>
			<path id="dp_path035" fill="#10547d" fill-rule="evenodd" stroke="#10547d" stroke-width="1.33333" d="M 264.127,512.016 L 275.816,512.016 L 275.816,539.752 L 264.127,539.752 Z "/>
			<path id="dp_path036" fill="#10547d" fill-rule="evenodd" stroke="#10547d" stroke-width="1.33333" d="M 264.127,556.016 L 275.816,556.016 L 275.816,583.752 L 264.127,583.752 Z "/>
			<path id="dp_path037" fill="#10547d" fill-rule="evenodd" stroke="#10547d" stroke-width="1.33333" d="M 295.583,514.796 L 318.26,514.796 L 318.26,537.473 L 295.583,537.473 Z "/>
			<path id="dp_path038" fill="#10547d" fill-rule="evenodd" stroke="#10547d" stroke-width="1.33333" d="M 325.583,514.796 L 348.26,514.796 L 348.26,537.473 L 325.583,537.473 Z "/>
			<path id="dp_path039" fill="#10547d" fill-rule="evenodd" stroke="#10547d" stroke-width="1.33333" d="M 355.583,514.796 L 378.26,514.796 L 378.26,537.473 L 355.583,537.473 Z "/>
			<path id="dp_path040" fill="#10547d" fill-rule="evenodd" stroke="#10547d" stroke-width="1.33333" d="M 295.583,558.796 L 318.26,558.796 L 318.26,581.473 L 295.583,581.473 Z "/>
			<path id="dp_path041" fill="#10547d" fill-rule="evenodd" stroke="#10547d" stroke-width="1.33333" d="M 325.583,558.796 L 348.26,558.796 L 348.26,581.473 L 325.583,581.473 Z "/>
			<path id="dp_path042" fill="#10547d" fill-rule="evenodd" stroke="#10547d" stroke-width="1.33333" d="M 355.583,558.796 L 378.26,558.796 L 378.26,581.473 L 355.583,581.473 Z "/>
			<path id="dp_path043" fill="#10547d" fill-rule="evenodd" stroke="#10547d" stroke-width="1.33333" d="M 397.308,563.596 L 423.425,563.596 L 423.425,582.048 L 397.308,582.048 Z "/>
			<path id="dp_path044" fill="#10547d" fill-rule="evenodd" stroke="#10547d" stroke-width="1.33333" d="M 427.308,563.596 L 453.425,563.596 L 453.425,582.048 L 427.308,582.048 Z "/>
			<path id="dp_path045" fill="#10547d" fill-rule="evenodd" stroke="#10547d" stroke-width="1.33333" d="M 535.845,580.489 L 479.349,580.489 L 476.221,565.808 L 539.575,565.808 Z "/>
			<path id="dp_path046" fill="#10547d" fill-rule="evenodd" stroke="#10547d" stroke-width="1.33333" d="M 397.308,518.596 L 423.425,518.596 L 423.425,537.048 L 397.308,537.048 Z "/>
			<path id="dp_path047" fill="#10547d" fill-rule="evenodd" stroke="#10547d" stroke-width="1.33333" d="M 427.308,518.596 L 453.425,518.596 L 453.425,537.048 L 427.308,537.048 Z "/>
			<path id="dp_path048" fill="#10547d" fill-rule="evenodd" stroke="#10547d" stroke-width="1.33333" d="M 535.845,535.489 L 479.349,535.489 L 476.221,520.808 L 539.575,520.808 Z "/>
			<path id="dp_path049" fill="#10547d" fill-rule="evenodd" stroke="#10547d" stroke-width="1.33333" d="M 76.6547,651.504 L 99.332,651.504 L 99.332,674.181 L 76.6547,674.181 Z "/>
			<path id="dp_path050" fill="#10547d" fill-rule="evenodd" stroke="#10547d" stroke-width="1.33333" d="M 102.655,651.504 L 125.332,651.504 L 125.332,674.181 L 102.655,674.181 Z "/>
			<path id="dp_path051" fill="#10547d" fill-rule="evenodd" stroke="#10547d" stroke-width="1.33333" d="M 176.716,670.32 L 144.267,670.32 L 142.471,655.639 L 178.859,655.639 Z "/>
			<path id="dp_path052" fill="white" fill-rule="evenodd" stroke="#10547d" stroke-width="1.33333" d="M 688,415.751 L 729.228,415.751 L 729.228,544.251 L 688,544.251 Z "/>
			<path id="dp_path053" fill="white" fill-rule="evenodd" stroke="#10547d" stroke-width="1.33333" d="M 688,551.811 L 729.228,551.811 L 729.228,680.315 L 688,680.315 Z "/>
		</g>
	</g>
	<g id="iPASO1000_active">
		<g transform="matrix(1,0,0,1,-25.92,-388.212)">
			<path id="dp_path001" fill="#91c054" fill-rule="evenodd" stroke="#91c054" stroke-width="1.33333" d="M 26.5867,388.879 L 736.431,388.879 L 736.431,687.873 L 26.5867,687.873 Z "/>
			<path id="dp_path002" fill="white" fill-rule="evenodd" stroke="#91c054" stroke-width="1.33333" d="M 57.4133,415.749 L 208.593,415.749 L 208.593,453.543 L 57.4133,453.543 Z "/>
			<path id="dp_path003" fill="white" fill-rule="evenodd" stroke="#91c054" stroke-width="1.33333" d="M 214.413,415.748 L 365.593,415.748 L 365.593,453.543 L 214.413,453.543 Z "/>
			<path id="dp_path004" fill="white" fill-rule="evenodd" stroke="#91c054" stroke-width="1.33333" d="M 529.272,415.749 L 680.316,415.749 L 680.316,453.543 L 529.272,453.543 Z "/>
			<path id="dp_path005" fill="#91c054" fill-rule="evenodd" stroke="#91c054" stroke-width="1.33333" d="M 82.6227,426.623 C 87.9013,426.623 92.1813,430.903 92.1813,436.181 C 92.1813,441.46 87.9013,445.74 82.6227,445.74 C 77.344,445.74 73.064,441.46 73.064,436.181 C 73.064,430.903 77.344,426.623 82.6227,426.623 Z "/>
			<path id="dp_path006" fill="#91c054" fill-rule="evenodd" stroke="#91c054" stroke-width="1.33333" d="M 238.623,426.623 C 243.901,426.623 248.181,430.903 248.181,436.181 C 248.181,441.46 243.901,445.74 238.623,445.74 C 233.344,445.74 229.064,441.46 229.064,436.181 C 229.064,430.903 233.344,426.623 238.623,426.623 Z "/>
			<path id="dp_path007" fill="white" fill-rule="evenodd" stroke="#91c054" stroke-width="1.33333" d="M 371.415,415.748 L 522.459,415.748 L 522.459,453.543 L 371.415,453.543 Z "/>
			<path id="dp_path008" fill="white" fill-rule="evenodd" stroke="#91c054" stroke-width="1.33333" d="M 57.4133,461.749 L 208.593,461.749 L 208.593,499.543 L 57.4133,499.543 Z "/>
			<path id="dp_path009" fill="white" fill-rule="evenodd" stroke="#91c054" stroke-width="1.33333" d="M 214.413,461.748 L 365.593,461.748 L 365.593,499.543 L 214.413,499.543 Z "/>
			<path id="dp_path010" fill="white" fill-rule="evenodd" stroke="#91c054" stroke-width="1.33333" d="M 529.272,461.749 L 680.316,461.749 L 680.316,499.543 L 529.272,499.543 Z "/>
			<path id="dp_path011" fill="#91c054" fill-rule="evenodd" stroke="#91c054" stroke-width="1.33333" d="M 82.6227,472.623 C 87.9013,472.623 92.1813,476.903 92.1813,482.181 C 92.1813,487.46 87.9013,491.74 82.6227,491.74 C 77.344,491.74 73.064,487.46 73.064,482.181 C 73.064,476.903 77.344,472.623 82.6227,472.623 Z "/>
			<path id="dp_path012" fill="#91c054" fill-rule="evenodd" stroke="#91c054" stroke-width="1.33333" d="M 238.623,472.623 C 243.901,472.623 248.181,476.903 248.181,482.181 C 248.181,487.46 243.901,491.74 238.623,491.74 C 233.344,491.74 229.064,487.46 229.064,482.181 C 229.064,476.903 233.344,472.623 238.623,472.623 Z "/>
			<path id="dp_path013" fill="white" fill-rule="evenodd" stroke="#91c054" stroke-width="1.33333" d="M 371.415,461.748 L 522.459,461.748 L 522.459,499.543 L 371.415,499.543 Z "/>
			<path id="dp_path014" fill="white" fill-rule="evenodd" stroke="#91c054" stroke-width="1.33333" d="M 57.4133,506.749 L 208.593,506.749 L 208.593,544.543 L 57.4133,544.543 Z "/>
			<path id="dp_path015" fill="white" fill-rule="evenodd" stroke="#91c054" stroke-width="1.33333" d="M 214.413,506.748 L 680.311,506.748 L 680.311,544.543 L 214.413,544.543 Z "/>
			<path id="dp_path016" fill="white" fill-rule="evenodd" stroke="#91c054" stroke-width="1.33333" d="M 57.4133,551.749 L 208.593,551.749 L 208.593,589.543 L 57.4133,589.543 Z "/>
			<path id="dp_path017" fill="white" fill-rule="evenodd" stroke="#91c054" stroke-width="1.33333" d="M 214.213,551.811 L 680.111,551.811 L 680.111,589.605 L 214.213,589.605 Z "/>
			<path id="dp_path018" fill="white" fill-rule="evenodd" stroke="#91c054" stroke-width="1.33333" d="M 57.4133,597.749 L 208.593,597.749 L 208.593,635.543 L 57.4133,635.543 Z "/>
			<path id="dp_path019" fill="white" fill-rule="evenodd" stroke="#91c054" stroke-width="1.33333" d="M 214.413,597.748 L 365.593,597.748 L 365.593,635.543 L 214.413,635.543 Z "/>
			<path id="dp_path020" fill="white" fill-rule="evenodd" stroke="#91c054" stroke-width="1.33333" d="M 529.272,597.749 L 680.316,597.749 L 680.316,635.543 L 529.272,635.543 Z "/>
			<path id="dp_path021" fill="white" fill-rule="evenodd" stroke="#91c054" stroke-width="1.33333" d="M 371.415,597.748 L 522.459,597.748 L 522.459,635.543 L 371.415,635.543 Z "/>
			<path id="dp_path022" fill="white" fill-rule="evenodd" stroke="#91c054" stroke-width="1.33333" d="M 57.4133,642.749 L 208.593,642.749 L 208.593,680.543 L 57.4133,680.543 Z "/>
			<path id="dp_path023" fill="white" fill-rule="evenodd" stroke="#91c054" stroke-width="1.33333" d="M 214.413,642.748 L 443.584,642.748 L 443.584,680.543 L 214.413,680.543 Z "/>
			<path id="dp_path024" fill="white" fill-rule="evenodd" stroke="#91c054" stroke-width="1.33333" d="M 451.204,642.749 L 680.315,642.749 L 680.315,680.543 L 451.204,680.543 Z "/>
			<path id="dp_path025" fill="#91c054" fill-rule="evenodd" stroke="#91c054" stroke-width="1.33333" d="M 297.361,651.304 L 365.392,651.304 L 365.392,669.756 L 297.361,669.756 Z "/>
			<path id="dp_path026" fill="#91c054" fill-rule="evenodd" stroke="#91c054" stroke-width="1.33333" d="M 536.151,651.08 L 604.181,651.08 L 604.181,669.532 L 536.151,669.532 Z "/>
			<path id="dp_path027" fill="#91c054" fill-rule="evenodd" stroke="#91c054" stroke-width="1.33333" d="M 76.6547,515.504 L 99.332,515.504 L 99.332,538.181 L 76.6547,538.181 Z "/>
			<path id="dp_path028" fill="#91c054" fill-rule="evenodd" stroke="#91c054" stroke-width="1.33333" d="M 102.655,515.504 L 125.332,515.504 L 125.332,538.181 L 102.655,538.181 Z "/>
			<path id="dp_path029" fill="#91c054" fill-rule="evenodd" stroke="#91c054" stroke-width="1.33333" d="M 132.157,519.181 L 158.275,519.181 L 158.275,537.633 L 132.157,537.633 Z "/>
			<path id="dp_path030" fill="#91c054" fill-rule="evenodd" stroke="#91c054" stroke-width="1.33333" d="M 162.157,519.181 L 188.275,519.181 L 188.275,537.633 L 162.157,537.633 Z "/>
			<path id="dp_path031" fill="#91c054" fill-rule="evenodd" stroke="#91c054" stroke-width="1.33333" d="M 76.6547,560.504 L 99.332,560.504 L 99.332,583.181 L 76.6547,583.181 Z "/>
			<path id="dp_path032" fill="#91c054" fill-rule="evenodd" stroke="#91c054" stroke-width="1.33333" d="M 102.655,560.504 L 125.332,560.504 L 125.332,583.181 L 102.655,583.181 Z "/>
			<path id="dp_path033" fill="#91c054" fill-rule="evenodd" stroke="#91c054" stroke-width="1.33333" d="M 132.157,564.181 L 158.275,564.181 L 158.275,582.633 L 132.157,582.633 Z "/>
			<path id="dp_path034" fill="#91c054" fill-rule="evenodd" stroke="#91c054" stroke-width="1.33333" d="M 162.157,564.181 L 188.275,564.181 L 188.275,582.633 L 162.157,582.633 Z "/>
			<path id="dp_path035" fill="#91c054" fill-rule="evenodd" stroke="#91c054" stroke-width="1.33333" d="M 264.127,512.016 L 275.816,512.016 L 275.816,539.752 L 264.127,539.752 Z "/>
			<path id="dp_path036" fill="#91c054" fill-rule="evenodd" stroke="#91c054" stroke-width="1.33333" d="M 264.127,556.016 L 275.816,556.016 L 275.816,583.752 L 264.127,583.752 Z "/>
			<path id="dp_path037" fill="#91c054" fill-rule="evenodd" stroke="#91c054" stroke-width="1.33333" d="M 295.583,514.796 L 318.26,514.796 L 318.26,537.473 L 295.583,537.473 Z "/>
			<path id="dp_path038" fill="#91c054" fill-rule="evenodd" stroke="#91c054" stroke-width="1.33333" d="M 325.583,514.796 L 348.26,514.796 L 348.26,537.473 L 325.583,537.473 Z "/>
			<path id="dp_path039" fill="#91c054" fill-rule="evenodd" stroke="#91c054" stroke-width="1.33333" d="M 355.583,514.796 L 378.26,514.796 L 378.26,537.473 L 355.583,537.473 Z "/>
			<path id="dp_path040" fill="#91c054" fill-rule="evenodd" stroke="#91c054" stroke-width="1.33333" d="M 295.583,558.796 L 318.26,558.796 L 318.26,581.473 L 295.583,581.473 Z "/>
			<path id="dp_path041" fill="#91c054" fill-rule="evenodd" stroke="#91c054" stroke-width="1.33333" d="M 325.583,558.796 L 348.26,558.796 L 348.26,581.473 L 325.583,581.473 Z "/>
			<path id="dp_path042" fill="#91c054" fill-rule="evenodd" stroke="#91c054" stroke-width="1.33333" d="M 355.583,558.796 L 378.26,558.796 L 378.26,581.473 L 355.583,581.473 Z "/>
			<path id="dp_path043" fill="#91c054" fill-rule="evenodd" stroke="#91c054" stroke-width="1.33333" d="M 397.308,563.596 L 423.425,563.596 L 423.425,582.048 L 397.308,582.048 Z "/>
			<path id="dp_path044" fill="#91c054" fill-rule="evenodd" stroke="#91c054" stroke-width="1.33333" d="M 427.308,563.596 L 453.425,563.596 L 453.425,582.048 L 427.308,582.048 Z "/>
			<path id="dp_path045" fill="#91c054" fill-rule="evenodd" stroke="#91c054" stroke-width="1.33333" d="M 535.845,580.489 L 479.349,580.489 L 476.221,565.808 L 539.575,565.808 Z "/>
			<path id="dp_path046" fill="#91c054" fill-rule="evenodd" stroke="#91c054" stroke-width="1.33333" d="M 397.308,518.596 L 423.425,518.596 L 423.425,537.048 L 397.308,537.048 Z "/>
			<path id="dp_path047" fill="#91c054" fill-rule="evenodd" stroke="#91c054" stroke-width="1.33333" d="M 427.308,518.596 L 453.425,518.596 L 453.425,537.048 L 427.308,537.048 Z "/>
			<path id="dp_path048" fill="#91c054" fill-rule="evenodd" stroke="#91c054" stroke-width="1.33333" d="M 535.845,535.489 L 479.349,535.489 L 476.221,520.808 L 539.575,520.808 Z "/>
			<path id="dp_path049" fill="#91c054" fill-rule="evenodd" stroke="#91c054" stroke-width="1.33333" d="M 76.6547,651.504 L 99.332,651.504 L 99.332,674.181 L 76.6547,674.181 Z "/>
			<path id="dp_path050" fill="#91c054" fill-rule="evenodd" stroke="#91c054" stroke-width="1.33333" d="M 102.655,651.504 L 125.332,651.504 L 125.332,674.181 L 102.655,674.181 Z "/>
			<path id="dp_path051" fill="#91c054" fill-rule="evenodd" stroke="#91c054" stroke-width="1.33333" d="M 176.716,670.32 L 144.267,670.32 L 142.471,655.639 L 178.859,655.639 Z "/>
			<path id="dp_path052" fill="white" fill-rule="evenodd" stroke="#91c054" stroke-width="1.33333" d="M 688,415.751 L 729.228,415.751 L 729.228,544.251 L 688,544.251 Z "/>
			<path id="dp_path053" fill="white" fill-rule="evenodd" stroke="#91c054" stroke-width="1.33333" d="M 688,551.811 L 729.228,551.811 L 729.228,680.315 L 688,680.315 Z "/>
		</g>
	</g>
</g>
</svg>